<?xml version="1.0" encoding="utf-8"?>
<!-- Generator: Adobe Illustrator 16.0.0, SVG Export Plug-In . SVG Version: 6.00 Build 0)  -->
<!DOCTYPE svg PUBLIC "-//W3C//DTD SVG 1.1//EN" "http://www.w3.org/Graphics/SVG/1.1/DTD/svg11.dtd">
<svg version="1.1" id="sansirilogo_xA0_Image_1_" xmlns="http://www.w3.org/2000/svg" xmlns:xlink="http://www.w3.org/1999/xlink"
	 x="0px" y="0px" width="100px" height="59.833px" viewBox="0 9.5 100 59.833" enable-background="new 0 9.5 100 59.833"
	 xml:space="preserve">
<g>
	<path fill="#212121" d="M9.737,68.382c-1.352-0.215-2.646-0.602-3.878-1.212C5.676,67.079,5.374,67.23,5,67.29
		c0.379-0.828,0.739-1.615,1.11-2.427c0.806,1.892,2.491,2.021,4.104,2.134c0.886,0.062,1.81-0.122,2.687-0.325
		c0.666-0.154,1.161-0.633,1.316-1.361c0.156-0.729-0.109-1.334-0.827-1.522c-0.725-0.19-1.489-0.253-2.242-0.315
		c-1.187-0.103-2.393-0.068-3.565-0.258c-1.091-0.176-1.931-0.808-2.14-1.999c-0.222-1.262,0.25-2.25,1.307-2.932
		c1.501-0.972,3.183-1.192,4.92-1.021c0.674,0.066,1.338,0.258,2,0.42c0.583,0.143,1.131,0.625,1.772,0.002
		c0.026,0.061,0.052,0.117,0.078,0.176c-0.365,0.77-0.73,1.537-1.113,2.347c-0.738-1.497-2.132-1.497-3.405-1.625
		c-1.001-0.103-2.019,0.048-2.924,0.558c-0.289,0.161-0.569,0.397-0.757,0.668c-0.491,0.703-0.245,1.489,0.572,1.726
		c0.575,0.164,1.192,0.194,1.794,0.241c1.285,0.1,2.6,0.029,3.851,0.283c2.223,0.445,2.771,2.158,2.228,3.836
		c-0.239,0.737-0.775,1.293-1.469,1.595c-0.756,0.327-1.571,0.521-2.362,0.767c-0.194,0.061-0.398,0.088-0.598,0.131
		C10.803,68.382,10.27,68.382,9.737,68.382z"/>
	<path fill="#212121" d="M57.576,68.382c-0.756-0.168-1.518-0.313-2.266-0.513c-0.379-0.102-0.744-0.283-1.1-0.463
		c-0.432-0.221-0.844-0.452-1.316-0.047c-0.037-0.037-0.072-0.074-0.108-0.111c0.371-0.789,0.741-1.578,1.159-2.464
		c0.6,1.893,2.188,1.981,3.59,2.194c0.91,0.139,1.88-0.088,2.82-0.186c0.232-0.021,0.47-0.146,0.684-0.268
		c0.727-0.396,1.125-1.146,0.994-1.829c-0.115-0.603-0.684-1.06-1.553-1.115c-1.154-0.079-2.317-0.058-3.476-0.132
		c-0.653-0.043-1.319-0.143-1.95-0.32c-0.906-0.258-1.588-0.812-1.802-1.794c-0.249-1.146,0.058-2.125,0.991-2.838
		c1.561-1.188,3.37-1.411,5.248-1.228c0.689,0.067,1.375,0.27,2.052,0.442c0.552,0.142,1.07,0.584,1.659-0.04
		c0.031,0.061,0.064,0.12,0.102,0.18c-0.363,0.77-0.729,1.535-1.135,2.394c-0.542-1.354-1.716-1.424-2.812-1.612
		c-1.09-0.186-2.168-0.072-3.184,0.36c-0.398,0.171-0.801,0.465-1.062,0.808c-0.516,0.674-0.256,1.479,0.554,1.725
		c0.553,0.166,1.153,0.201,1.735,0.244c1.285,0.097,2.598,0.027,3.854,0.267c2.217,0.419,3.188,2.539,2.075,4.307
		c-0.578,0.918-1.479,1.402-2.496,1.675c-0.582,0.156-1.183,0.244-1.774,0.363C58.564,68.382,58.07,68.382,57.576,68.382z"/>
	<path fill="#212121" d="M95.824,68.268c-0.891,0-1.78,0-2.67,0c0.541-0.369,0.4-0.899,0.4-1.385c0.004-2.794,0.004-5.587,0-8.381
		c0-0.402,0.141-0.87-0.562-0.995c0.045-0.065,0.09-0.133,0.136-0.198c0.896,0,1.796,0,2.693,0c0,0.075,0,0.151,0,0.229
		c-0.291,0.084-0.504,0.208-0.502,0.578c0.01,3.131,0.007,6.262,0.006,9.393c0,0.335,0.119,0.554,0.497,0.533
		C95.824,68.115,95.824,68.191,95.824,68.268z"/>
	<path fill="#212121" d="M34.599,41.225c3.496,0,6.862,0,10.228,0c2.74,0,5.48,0.029,8.22-0.014c1.25-0.019,2.432,0.158,3.62,0.565
		c3.03,1.037,6.087,1.993,9.133,2.981c0.07,0.022,0.138,0.051,0.375,0.139c-0.294,0.021-0.423,0.039-0.552,0.039
		c-6.793,0.001-13.585,0.002-20.377-0.004c-0.261,0-0.539-0.021-0.782-0.108c-3.178-1.132-6.352-2.278-9.526-3.422
		C34.854,41.371,34.779,41.319,34.599,41.225z"/>
	<path fill="#212121" d="M34.666,35.054c0.376,0,0.581,0,0.786,0c6.237,0,12.474-0.022,18.71,0.025
		c0.922,0.007,1.857,0.3,2.762,0.554c2.898,0.815,5.785,1.673,8.676,2.516c0.121,0.035,0.237,0.083,0.342,0.195
		c-0.146,0-0.293,0-0.438,0c-6.788,0-13.576,0.001-20.364-0.005c-0.261,0-0.534-0.03-0.78-0.109
		c-3.085-0.988-6.166-1.987-9.248-2.985C35.011,35.211,34.916,35.162,34.666,35.054z"/>
	<path fill="#212121" d="M34.92,28.854c0.207,0,0.414,0,0.621,0c6.201,0,12.403-0.038,18.604,0.032
		c1.207,0.014,2.418,0.407,3.608,0.702c2.667,0.659,5.322,1.365,7.981,2.055c0.062,0.017,0.123,0.063,0.311,0.163
		c-0.324,0-0.505,0-0.688,0c-6.603,0-13.203,0.013-19.802-0.019c-0.759-0.004-1.532-0.212-2.273-0.417
		c-2.684-0.745-5.356-1.529-8.032-2.3c-0.119-0.034-0.232-0.088-0.347-0.133C34.909,28.909,34.915,28.882,34.92,28.854z"/>
	<path fill="#212121" d="M79.451,68.218c-0.77,0-1.643,0-2.379,0c0.089-0.374,0.257-0.752,0.26-1.132
		c0.021-2.891,0.012-5.781,0.012-8.67c0-0.377,0.096-0.801-0.557-0.886c0.041-0.046,0.082-0.091,0.122-0.136
		c0.153-0.018,0.308-0.043,0.461-0.043c2.263-0.004,4.526-0.021,6.788,0.006c0.933,0.011,1.875,0.115,2.613,0.783
		c0.977,0.885,1.033,2.028,0.771,3.207c-0.254,1.153-1.113,1.707-2.195,1.979c-0.146,0.037-0.293,0.064-0.44,0.098
		c-0.017,0.004-0.03,0.023-0.132,0.106c1.127,1.532,1.91,3.312,3.271,4.685c-0.878,0-1.831,0-2.92,0
		c0.646-0.266,0.394-0.566,0.188-0.887c-0.715-1.12-1.426-2.242-2.119-3.376c-0.178-0.294-0.377-0.421-0.729-0.413
		c-0.969,0.021-1.938,0.021-2.907,0.001c-0.363-0.008-0.509,0.099-0.5,0.481c0.02,1.082-0.021,2.168,0.022,3.25
		C79.096,67.589,79.32,67.896,79.451,68.218z M79.104,62.104c1.77,0,3.498,0.059,5.223-0.021c1.104-0.049,1.709-0.828,1.652-1.856
		c-0.054-0.959-0.574-1.42-1.744-1.443c-1.615-0.032-3.231-0.021-4.852-0.025c-0.088,0-0.175,0.036-0.279,0.061
		C79.104,59.917,79.104,60.99,79.104,62.104z"/>
	<path fill="#212121" d="M65.829,25.214c-0.187,0-0.373,0-0.558,0c-5.896,0-11.791-0.03-17.687,0.017
		c-1.914,0.015-3.768-0.16-5.615-0.682c-2.347-0.664-4.729-1.206-7.088-1.91c0.146,0,0.292,0,0.439,0
		c6.351,0,12.702-0.032,19.052,0.03c1.134,0.011,2.271,0.387,3.396,0.634c2.57,0.565,5.14,1.155,7.707,1.737
		c0.123,0.028,0.241,0.075,0.361,0.112C65.837,25.173,65.833,25.193,65.829,25.214z"/>
	<path fill="#212121" d="M45.555,57.398c0.67,0,1.467,0,2.113,0c-0.102,0.377-0.278,0.735-0.281,1.099
		c-0.023,2.874-0.023,5.747,0,8.62c0.003,0.361,0.183,0.723,0.285,1.097c-0.688,0-1.525,0-2.481,0
		c0.412-0.237,0.512-0.452,0.205-0.797c-2.387-2.687-4.758-5.388-7.128-8.089c-0.046-0.053-0.034-0.156-0.049-0.236
		c-0.06,0.042-0.12,0.085-0.179,0.127c-0.009,0.182-0.026,0.362-0.026,0.543c-0.002,2.475-0.013,4.947,0.013,7.422
		c0.003,0.34,0.191,0.682,0.298,1.03c-0.663,0-1.461,0-2.415,0c0.696-0.301,0.639-0.812,0.638-1.312
		c-0.004-2.797,0.01-5.594-0.017-8.395c-0.003-0.357-0.202-0.716-0.318-1.098c0.982,0,2.125,0,3.47,0
		c-0.755,0.289-0.489,0.555-0.226,0.854c2.021,2.299,4.037,4.604,6.051,6.907c0.086,0.101,0.138,0.228,0.206,0.341
		c0.051-0.029,0.102-0.06,0.153-0.089c0.014-0.157,0.039-0.317,0.04-0.478c0.002-2.168,0.016-4.34-0.014-6.508
		C45.886,58.104,45.68,57.768,45.555,57.398z"/>
	<path fill="#212121" d="M65.984,18.676c-6.883,0-13.601,0.034-20.312-0.029c-1.307-0.013-2.617-0.372-3.914-0.631
		c-2.193-0.44-4.376-0.928-6.562-1.399c-0.125-0.026-0.245-0.076-0.534-0.167c0.37,0,0.568,0,0.767,0
		c6.258,0,12.517-0.031,18.774,0.026c1.234,0.012,2.473,0.333,3.699,0.563c2.516,0.472,5.023,0.976,7.537,1.47
		C65.583,18.537,65.721,18.594,65.984,18.676z"/>
	<path fill="#212121" d="M23.962,57.387c0.958,0,1.917,0,2.967,0c-0.483,0.398-0.234,0.758-0.051,1.137
		c1.415,2.918,2.815,5.847,4.242,8.76c0.168,0.344,0.466,0.625,0.7,0.928c-0.855,0-1.795,0-2.736,0
		c0.609-0.23,0.403-0.604,0.211-0.98c-0.309-0.604-0.469-1.42-0.959-1.756c-0.446-0.306-1.248-0.095-1.894-0.098
		c-1.142-0.006-2.283,0.02-3.424-0.012c-0.395-0.014-0.584,0.13-0.713,0.479c-0.184,0.497-0.437,0.971-0.603,1.473
		c-0.085,0.26-0.048,0.559-0.071,0.904c-0.635,0-1.436,0-2.313,0c0.742-0.562,0.945-1.383,1.28-2.117
		c1.181-2.588,2.339-5.187,3.506-7.778C24.249,58.003,24.438,57.676,23.962,57.387z M25.35,59.073
		c-0.751,1.709-1.441,3.282-2.145,4.885c1.547,0,2.986,0,4.492,0C26.911,62.323,26.162,60.764,25.35,59.073z"/>
	<path fill="#212121" d="M65.664,12.084c-1.311,0-2.622,0-3.934,0c-4.603,0-9.203-0.058-13.806,0.023
		c-2.508,0.044-4.955-0.269-7.399-0.743c-1.84-0.357-3.688-0.678-5.535-1.086c0.186,0,0.37,0,0.555,0
		c6.237,0,12.475-0.037,18.711,0.027c1.485,0.015,2.974,0.342,4.449,0.572c2.319,0.36,4.64,0.759,6.954,1.142
		C65.663,12.04,65.664,12.062,65.664,12.084z"/>
	<path fill="#212121" d="M68.73,57.391c0.748,0,1.621,0,2.494,0c-0.438,0.301-0.43,0.713-0.429,1.15
		c0.013,2.889-0.004,5.777,0.021,8.666c0.002,0.326,0.177,0.65,0.275,0.995c-0.73,0-1.613,0-2.496,0
		c0.483-0.226,0.487-0.647,0.487-1.089c-0.006-2.889,0.008-5.777-0.021-8.666C69.064,58.107,68.857,57.771,68.73,57.391z"/>
</g>
</svg>
