<?xml version="1.0" encoding="utf-8"?>
<!-- Generator: Adobe Illustrator 16.0.0, SVG Export Plug-In . SVG Version: 6.00 Build 0)  -->
<!DOCTYPE svg PUBLIC "-//W3C//DTD SVG 1.1//EN" "http://www.w3.org/Graphics/SVG/1.1/DTD/svg11.dtd">
<svg version="1.1" id="sansirilogo_xA0_Image_1_" xmlns="http://www.w3.org/2000/svg" xmlns:xlink="http://www.w3.org/1999/xlink"
	 x="0px" y="0px" width="100px" height="59.833px" viewBox="0 0 100 59.833" enable-background="new 0 0 100 59.833"
	 xml:space="preserve">
<g>
	<path fill="#F5F5F5" d="M9.325,58.969c-1.352-0.215-2.646-0.602-3.878-1.211c-0.183-0.092-0.485,0.06-0.859,0.119
		c0.379-0.828,0.739-1.615,1.11-2.426c0.806,1.891,2.491,2.02,4.104,2.133c0.886,0.062,1.81-0.121,2.687-0.324
		c0.666-0.154,1.161-0.633,1.316-1.361c0.156-0.729-0.109-1.334-0.827-1.521c-0.725-0.19-1.489-0.254-2.242-0.315
		c-1.187-0.103-2.393-0.067-3.565-0.259c-1.091-0.176-1.931-0.807-2.14-1.998c-0.222-1.262,0.25-2.25,1.307-2.932
		c1.501-0.973,3.183-1.193,4.92-1.021c0.674,0.066,1.338,0.258,2,0.42c0.583,0.143,1.131,0.625,1.772,0.002
		c0.026,0.061,0.052,0.117,0.078,0.176c-0.365,0.77-0.73,1.537-1.113,2.348c-0.738-1.498-2.132-1.498-3.405-1.625
		c-1.001-0.104-2.019,0.047-2.924,0.558c-0.289,0.161-0.569,0.397-0.757,0.668c-0.491,0.702-0.245,1.489,0.572,1.726
		c0.575,0.164,1.192,0.194,1.794,0.241c1.285,0.101,2.6,0.029,3.851,0.283c2.223,0.444,2.771,2.157,2.228,3.836
		c-0.239,0.737-0.775,1.293-1.469,1.595c-0.756,0.327-1.571,0.521-2.362,0.768c-0.194,0.061-0.398,0.088-0.598,0.131
		C10.391,58.969,9.858,58.969,9.325,58.969z"/>
	<path fill="#F5F5F5" d="M57.164,58.969c-0.756-0.168-1.518-0.312-2.266-0.512c-0.379-0.103-0.744-0.283-1.101-0.463
		c-0.433-0.222-0.844-0.453-1.315-0.048c-0.037-0.036-0.072-0.073-0.108-0.11c0.371-0.789,0.741-1.578,1.159-2.465
		c0.6,1.893,2.188,1.981,3.59,2.194c0.91,0.14,1.88-0.088,2.82-0.187c0.231-0.021,0.47-0.146,0.684-0.268
		c0.727-0.396,1.125-1.146,0.994-1.828c-0.115-0.604-0.684-1.061-1.553-1.115c-1.154-0.08-2.317-0.059-3.477-0.133
		c-0.652-0.043-1.318-0.143-1.949-0.32c-0.906-0.258-1.589-0.812-1.803-1.793c-0.249-1.146,0.059-2.125,0.991-2.838
		c1.562-1.188,3.37-1.412,5.248-1.229c0.688,0.066,1.375,0.27,2.052,0.441c0.553,0.143,1.07,0.584,1.659-0.039
		c0.03,0.061,0.063,0.119,0.103,0.18c-0.363,0.77-0.729,1.535-1.136,2.395c-0.542-1.354-1.716-1.424-2.812-1.613
		c-1.09-0.186-2.168-0.071-3.185,0.361c-0.397,0.17-0.801,0.465-1.062,0.807c-0.516,0.675-0.256,1.48,0.554,1.726
		c0.553,0.166,1.153,0.201,1.735,0.244c1.285,0.097,2.598,0.026,3.854,0.267c2.217,0.42,3.188,2.539,2.075,4.307
		c-0.578,0.918-1.479,1.402-2.496,1.676c-0.582,0.156-1.183,0.244-1.774,0.363C58.152,58.969,57.658,58.969,57.164,58.969z"/>
	<path fill="#F5F5F5" d="M95.412,58.856c-0.891,0-1.78,0-2.67,0c0.541-0.369,0.4-0.898,0.4-1.385c0.004-2.795,0.004-5.588,0-8.381
		c0-0.402,0.141-0.871-0.562-0.996c0.045-0.064,0.09-0.133,0.136-0.197c0.896,0,1.796,0,2.692,0c0,0.074,0,0.15,0,0.229
		c-0.291,0.084-0.504,0.209-0.502,0.578c0.011,3.131,0.008,6.262,0.007,9.393c0,0.336,0.118,0.555,0.497,0.533
		C95.412,58.704,95.412,58.779,95.412,58.856z"/>
	<path fill="#F5F5F5" d="M34.187,31.813c3.496,0,6.862,0,10.228,0c2.74,0,5.48,0.029,8.22-0.014c1.25-0.02,2.432,0.158,3.62,0.564
		c3.03,1.037,6.087,1.993,9.133,2.98c0.07,0.023,0.138,0.052,0.375,0.14c-0.294,0.021-0.423,0.039-0.552,0.039
		c-6.793,0.001-13.585,0.002-20.377-0.004c-0.261,0-0.539-0.021-0.782-0.108c-3.178-1.132-6.352-2.277-9.526-3.422
		C34.442,31.959,34.367,31.907,34.187,31.813z"/>
	<path fill="#F5F5F5" d="M34.254,25.641c0.376,0,0.581,0,0.786,0c6.237,0,12.474-0.021,18.71,0.025
		c0.922,0.008,1.857,0.301,2.762,0.555c2.898,0.814,5.785,1.673,8.676,2.516c0.121,0.035,0.237,0.083,0.342,0.195
		c-0.146,0-0.293,0-0.438,0c-6.788,0-13.576,0-20.364-0.006c-0.261,0-0.534-0.029-0.78-0.108c-3.085-0.987-6.166-1.987-9.248-2.985
		C34.599,25.799,34.504,25.75,34.254,25.641z"/>
	<path fill="#F5F5F5" d="M34.508,19.442c0.207,0,0.414,0,0.621,0c6.201,0,12.403-0.038,18.604,0.032
		c1.207,0.014,2.418,0.407,3.608,0.702c2.667,0.659,5.322,1.366,7.981,2.055c0.062,0.018,0.123,0.062,0.311,0.163
		c-0.324,0-0.505,0-0.688,0c-6.604,0-13.203,0.013-19.802-0.019c-0.759-0.004-1.532-0.213-2.273-0.418
		c-2.684-0.744-5.356-1.529-8.032-2.3c-0.119-0.034-0.232-0.088-0.347-0.133C34.497,19.497,34.503,19.47,34.508,19.442z"/>
	<path fill="#F5F5F5" d="M79.039,58.805c-0.77,0-1.643,0-2.379,0c0.089-0.373,0.257-0.752,0.26-1.131
		c0.021-2.892,0.012-5.781,0.012-8.67c0-0.377,0.096-0.801-0.557-0.887c0.041-0.046,0.082-0.091,0.122-0.136
		c0.153-0.019,0.308-0.043,0.461-0.043c2.263-0.004,4.526-0.021,6.788,0.006c0.933,0.011,1.875,0.115,2.613,0.783
		c0.977,0.885,1.033,2.028,0.771,3.207c-0.254,1.153-1.112,1.706-2.194,1.979c-0.146,0.037-0.293,0.063-0.44,0.098
		c-0.017,0.004-0.03,0.023-0.132,0.105c1.127,1.532,1.91,3.312,3.271,4.686c-0.878,0-1.831,0-2.92,0
		c0.646-0.266,0.394-0.566,0.188-0.887c-0.715-1.121-1.426-2.242-2.119-3.377c-0.178-0.293-0.377-0.42-0.729-0.412
		c-0.969,0.021-1.938,0.021-2.907,0c-0.363-0.008-0.509,0.1-0.5,0.481c0.021,1.082-0.021,2.168,0.022,3.25
		C78.684,58.176,78.908,58.484,79.039,58.805z M78.691,52.692c1.771,0,3.498,0.059,5.224-0.021c1.104-0.049,1.709-0.828,1.651-1.855
		c-0.054-0.959-0.574-1.42-1.744-1.443c-1.614-0.031-3.23-0.021-4.852-0.025c-0.088,0-0.175,0.037-0.279,0.062
		C78.691,50.504,78.691,51.579,78.691,52.692z"/>
	<path fill="#F5F5F5" d="M65.417,15.802c-0.187,0-0.373,0-0.558,0c-5.896,0-11.791-0.03-17.688,0.017
		c-1.914,0.015-3.768-0.16-5.615-0.682c-2.347-0.664-4.729-1.206-7.088-1.91c0.146,0,0.292,0,0.439,0
		c6.351,0,12.702-0.032,19.052,0.03c1.134,0.011,2.271,0.387,3.396,0.634c2.57,0.565,5.141,1.155,7.707,1.737
		c0.123,0.028,0.241,0.075,0.361,0.112C65.425,15.761,65.421,15.781,65.417,15.802z"/>
	<path fill="#F5F5F5" d="M45.143,47.986c0.67,0,1.467,0,2.113,0c-0.102,0.377-0.278,0.735-0.281,1.099
		c-0.023,2.875-0.023,5.748,0,8.621c0.003,0.36,0.183,0.723,0.285,1.096c-0.688,0-1.525,0-2.481,0
		c0.412-0.236,0.512-0.451,0.205-0.797c-2.387-2.687-4.758-5.387-7.128-8.088c-0.046-0.054-0.034-0.156-0.049-0.236
		c-0.06,0.041-0.12,0.084-0.179,0.127c-0.009,0.182-0.026,0.361-0.026,0.543c-0.002,2.475-0.013,4.947,0.013,7.422
		c0.003,0.34,0.191,0.682,0.298,1.029c-0.663,0-1.461,0-2.415,0c0.696-0.301,0.639-0.812,0.638-1.312
		c-0.004-2.797,0.01-5.594-0.017-8.396c-0.003-0.356-0.202-0.715-0.318-1.098c0.982,0,2.125,0,3.47,0
		c-0.755,0.289-0.489,0.555-0.226,0.854c2.021,2.3,4.037,4.605,6.051,6.908c0.086,0.101,0.138,0.228,0.206,0.34
		c0.051-0.028,0.102-0.059,0.153-0.088c0.014-0.157,0.039-0.317,0.04-0.479c0.002-2.168,0.016-4.34-0.014-6.508
		C45.474,48.692,45.268,48.356,45.143,47.986z"/>
	<path fill="#F5F5F5" d="M65.572,9.264c-6.883,0-13.602,0.034-20.312-0.029c-1.307-0.013-2.617-0.372-3.914-0.631
		c-2.193-0.44-4.376-0.928-6.562-1.399c-0.125-0.026-0.245-0.076-0.534-0.167c0.37,0,0.568,0,0.767,0
		c6.258,0,12.517-0.031,18.774,0.026c1.234,0.012,2.473,0.333,3.699,0.563c2.516,0.472,5.022,0.976,7.537,1.47
		C65.171,9.125,65.309,9.182,65.572,9.264z"/>
	<path fill="#F5F5F5" d="M23.55,47.975c0.958,0,1.917,0,2.967,0c-0.483,0.398-0.234,0.758-0.051,1.137
		c1.415,2.918,2.815,5.848,4.242,8.76c0.168,0.344,0.466,0.625,0.7,0.928c-0.855,0-1.795,0-2.736,0
		c0.609-0.229,0.403-0.604,0.211-0.979c-0.309-0.604-0.469-1.42-0.959-1.756c-0.446-0.306-1.248-0.095-1.894-0.099
		c-1.142-0.006-2.283,0.021-3.424-0.012c-0.395-0.014-0.584,0.131-0.713,0.479c-0.184,0.498-0.437,0.972-0.603,1.474
		c-0.085,0.261-0.048,0.56-0.071,0.904c-0.635,0-1.436,0-2.313,0c0.742-0.562,0.945-1.384,1.28-2.117
		c1.181-2.588,2.339-5.187,3.506-7.778C23.837,48.59,24.026,48.264,23.55,47.975z M24.938,49.661
		c-0.751,1.709-1.441,3.282-2.145,4.885c1.547,0,2.986,0,4.492,0C26.499,52.911,25.75,51.352,24.938,49.661z"/>
	<path fill="#F5F5F5" d="M65.252,2.672c-1.311,0-2.622,0-3.934,0c-4.604,0-9.203-0.058-13.807,0.023
		c-2.508,0.044-4.955-0.269-7.399-0.743c-1.84-0.357-3.688-0.678-5.535-1.086c0.186,0,0.37,0,0.555,0
		c6.237,0,12.475-0.037,18.711,0.027c1.485,0.015,2.975,0.342,4.449,0.572c2.318,0.36,4.641,0.759,6.954,1.142
		C65.251,2.628,65.252,2.65,65.252,2.672z"/>
	<path fill="#F5F5F5" d="M68.318,47.979c0.748,0,1.621,0,2.494,0c-0.438,0.301-0.431,0.713-0.43,1.15
		c0.014,2.889-0.004,5.776,0.021,8.666c0.002,0.326,0.177,0.649,0.274,0.994c-0.729,0-1.612,0-2.495,0
		c0.482-0.226,0.486-0.646,0.486-1.088c-0.006-2.89,0.008-5.777-0.021-8.666C68.652,48.695,68.445,48.359,68.318,47.979z"/>
</g>
</svg>
