<?xml version="1.0" encoding="utf-8"?>
<!-- Generator: Adobe Illustrator 16.0.0, SVG Export Plug-In . SVG Version: 6.00 Build 0)  -->
<!DOCTYPE svg PUBLIC "-//W3C//DTD SVG 1.1//EN" "http://www.w3.org/Graphics/SVG/1.1/DTD/svg11.dtd">
<svg version="1.1" id="Layer_1" xmlns="http://www.w3.org/2000/svg" xmlns:xlink="http://www.w3.org/1999/xlink" x="0px" y="0px"
	 width="100px" height="100px" viewBox="0 0 100 100" enable-background="new 0 0 100 100" xml:space="preserve">
<g>
	<polygon fill="#231F20" points="21.395,87.715 21.395,98.012 19.741,98.012 19.741,87.715 14.972,87.715 14.972,86.324 
		26.181,86.324 26.181,87.715 	"/>
	<path fill="#231F20" d="M25.75,94.154c0.065,1.374,1.225,2.847,3.543,2.847c1.241,0,2.55-0.545,3.08-1.755l1.507,0.414
		c-0.961,2.087-3.163,2.601-4.802,2.601c-2.617,0-4.951-1.508-4.951-4.307c0-3.243,2.864-4.286,4.917-4.286c3.642,0,5,2.765,5,4.256
		v0.23H25.75z M32.272,92.979c-0.414-1.177-1.324-2.135-3.129-2.135c-1.456,0-2.813,0.693-3.344,2.135H32.272z"/>
	<path fill="#231F20" d="M46.411,95.858c-0.761,1.476-2.417,2.434-4.917,2.434c-3.162,0-5.331-1.441-5.331-4.368
		c0-2.732,2.351-4.224,5.381-4.224c2.516,0,4.088,1.059,4.784,2.451l-1.506,0.429c-0.563-1.008-1.705-1.639-3.278-1.639
		c-1.904,0-3.708,1.027-3.708,3.113c0,2.169,2.086,2.979,3.725,2.979c1.623,0,2.832-0.662,3.345-1.571L46.411,95.858z"/>
	<path fill="#231F20" d="M56.327,98.012v-4.14c0-0.529-0.016-1.025-0.215-1.506c-0.432-1.011-1.69-1.357-2.698-1.357
		c-0.515,0-2.417,0.116-3.396,1.771v5.232h-1.572V86.324h1.589v4.484c0.911-0.611,1.639-1.125,3.625-1.125
		c2.434,0,3.575,1.161,3.973,2.136c0.249,0.58,0.266,1.144,0.266,1.771v4.421H56.327z"/>
	<path fill="#231F20" d="M67.376,86.324h7.683c1.639,0,4.205,0.33,4.205,3.029c0,1.969-1.474,2.301-1.639,2.399
		c1.158,0.365,2.217,1.276,2.217,2.996c0,0.315-0.016,1.011-0.495,1.74c-0.993,1.506-2.896,1.522-4.472,1.522h-7.499V86.324z
		 M75.157,91.258c0.762,0,1.572-0.019,2.07-0.729c0.115-0.165,0.313-0.53,0.313-1.061c0-0.297-0.066-0.992-0.777-1.439
		c-0.579-0.363-1.258-0.363-1.905-0.363H69.05v3.593H75.157z M75.372,96.654c0.861,0,1.772-0.084,2.352-0.828
		c0.165-0.2,0.38-0.613,0.38-1.191c0-0.25,0-0.696-0.331-1.177c-0.563-0.812-1.505-0.861-2.4-0.861H69.05v4.058H75.372z"/>
	<rect x="82.888" y="86.324" fill="#231F20" width="1.688" height="11.686"/>
	<polygon fill="#231F20" points="64.559,93.513 60.332,93.513 60.83,92.396 65.057,92.396 	"/>
	<g>
		<defs>
			<path id="SVGID_1_" d="M50.832,55.36l10.703-6.143l8.992,5.162L50.262,66.01L29.997,54.38l8.992-5.162l10.703,6.143
				c0.177,0.103,0.374,0.152,0.57,0.152S50.655,55.463,50.832,55.36 M63.813,47.909l8.992-5.161l8.832,5.082l-8.84,5.236
				L63.813,47.909z M50.832,42.421l10.703-6.143l8.992,5.162L50.262,53.069L29.997,41.44l8.992-5.162l10.703,6.143
				c0.177,0.102,0.374,0.151,0.57,0.151S50.655,42.522,50.832,42.421 M63.812,34.97l8.993-5.161l8.832,5.082l-8.84,5.236
				L63.812,34.97z M29.997,28.5l20.265-11.631L70.527,28.5L50.262,40.132L29.997,28.5z M17.777,60.084v-37.29L50.262,4.149
				L81.607,22.14l-8.801,5.051L50.832,14.58c-0.353-0.203-0.787-0.203-1.14,0L27.148,27.519c-0.353,0.203-0.571,0.576-0.571,0.981
				s0.218,0.779,0.571,0.982l9.562,5.489l-9.562,5.488c-0.353,0.202-0.571,0.577-0.571,0.981c0,0.404,0.218,0.778,0.571,0.981
				l9.562,5.488l-9.562,5.489c-0.353,0.202-0.571,0.577-0.571,0.981c0,0.405,0.218,0.777,0.571,0.98l22.544,12.94
				c0.177,0.1,0.374,0.151,0.57,0.151s0.393-0.052,0.57-0.151l21.975-12.613l8.801,5.052L50.262,78.73L17.777,60.084z M49.692,1.859
				L16.066,21.159c-0.353,0.203-0.57,0.577-0.57,0.981v38.599c0,0.405,0.217,0.779,0.57,0.979l33.625,19.302
				c0.177,0.1,0.374,0.151,0.57,0.151s0.393-0.052,0.57-0.151l33.625-19.302c0.352-0.2,0.57-0.574,0.57-0.979
				s-0.218-0.778-0.57-0.982l-9.397-5.394l9.412-5.573c0.347-0.207,0.559-0.579,0.556-0.981c-0.002-0.402-0.22-0.771-0.569-0.974
				l-9.4-5.41l9.414-5.576c0.347-0.205,0.559-0.579,0.556-0.981c-0.002-0.401-0.22-0.772-0.569-0.972l-9.373-5.396l9.372-5.38
				c0.352-0.202,0.57-0.576,0.57-0.98s-0.219-0.779-0.57-0.981L50.832,1.859c-0.176-0.102-0.373-0.152-0.57-0.152
				S49.869,1.758,49.692,1.859"/>
		</defs>
		<clipPath id="SVGID_2_">
			<use xlink:href="#SVGID_1_"  overflow="visible"/>
		</clipPath>
		
			<linearGradient id="SVGID_3_" gradientUnits="userSpaceOnUse" x1="-631.0303" y1="435.7715" x2="-630.5281" y2="435.7715" gradientTransform="matrix(-103.1683 -98.5141 -98.5141 103.1683 -22096.25 -107056.8906)">
			<stop  offset="0" style="stop-color:#007BAD"/>
			<stop  offset="1" style="stop-color:#3FD7FF"/>
		</linearGradient>
		<polygon clip-path="url(#SVGID_2_)" fill="url(#SVGID_3_)" points="51.867,115.901 -24.193,43.272 48.659,-33.022 124.72,39.607 
					"/>
	</g>
	<g>
		<defs>
			<polygon id="SVGID_4_" points="72.806,29.809 75.558,31.393 77.805,30.067 75.072,28.529 			"/>
		</defs>
		<clipPath id="SVGID_5_">
			<use xlink:href="#SVGID_4_"  overflow="visible"/>
		</clipPath>
		
			<linearGradient id="SVGID_6_" gradientUnits="userSpaceOnUse" x1="-655.8398" y1="416.4678" x2="-655.3378" y2="416.4678" gradientTransform="matrix(4.9871 2.9793 2.9793 -4.9871 2103.6484 4059.9082)">
			<stop  offset="0" style="stop-color:#205166"/>
			<stop  offset="1" style="stop-color:#3A97C9"/>
		</linearGradient>
		<polygon clip-path="url(#SVGID_5_)" fill="url(#SVGID_6_)" points="74.12,26.33 79.064,29.282 76.489,33.593 71.545,30.64 		"/>
	</g>
	<g>
		<defs>
			<polygon id="SVGID_7_" points="72.806,42.749 75.55,44.328 77.78,42.993 75.058,41.426 			"/>
		</defs>
		<clipPath id="SVGID_8_">
			<use xlink:href="#SVGID_7_"  overflow="visible"/>
		</clipPath>
		
			<linearGradient id="SVGID_9_" gradientUnits="userSpaceOnUse" x1="-657.2056" y1="418.375" x2="-656.7035" y2="418.375" gradientTransform="matrix(4.956 2.9608 2.9608 -4.956 2092.082 4061.25)">
			<stop  offset="0" style="stop-color:#205166"/>
			<stop  offset="1" style="stop-color:#368CBA"/>
		</linearGradient>
		<polygon clip-path="url(#SVGID_8_)" fill="url(#SVGID_9_)" points="74.115,39.235 79.058,42.188 76.472,46.518 71.528,43.563 		
			"/>
	</g>
	<g>
		<defs>
			<polygon id="SVGID_10_" points="72.793,55.673 75.541,57.257 77.787,55.93 75.05,54.359 			"/>
		</defs>
		<clipPath id="SVGID_11_">
			<use xlink:href="#SVGID_10_"  overflow="visible"/>
		</clipPath>
		
			<linearGradient id="SVGID_12_" gradientUnits="userSpaceOnUse" x1="-658.0767" y1="420.1699" x2="-657.5747" y2="420.1699" gradientTransform="matrix(4.9825 2.9765 2.9765 -4.9825 2101.918 4107.1191)">
			<stop  offset="0" style="stop-color:#205166"/>
			<stop  offset="1" style="stop-color:#2383B5"/>
		</linearGradient>
		<polygon clip-path="url(#SVGID_11_)" fill="url(#SVGID_12_)" points="74.106,52.159 79.062,55.12 76.473,59.456 71.517,56.495 		
			"/>
	</g>
</g>
</svg>
